<svg id="instagram" width="42" height="42" viewBox="0 0 42 42" xmlns="http://www.w3.org/2000/svg">
<path d="M21.4134 42.0003C21.2743 42.0003 21.1352 42.0003 20.9952 41.9996C17.703 42.0076 14.6612 41.924 11.7029 41.7439C8.99075 41.5789 6.51508 40.6416 4.54312 39.0337C2.64038 37.4821 1.34102 35.3843 0.681244 32.799C0.107025 30.5483 0.0765839 28.3389 0.0474243 26.2019C0.0262756 24.6686 0.00448608 22.8517 0 21.0041C0.00448608 19.1488 0.0262756 17.3319 0.0474243 15.7986C0.0765839 13.662 0.107025 11.4526 0.681244 9.20153C1.34102 6.61627 2.64038 4.51838 4.54312 2.96683C6.51508 1.35889 8.99075 0.42162 11.7032 0.256596C14.6615 0.0768323 17.704 -0.00712162 21.0032 0.000889252C24.2963 -0.00616031 27.3372 0.0768323 30.2955 0.256596C33.0076 0.42162 35.4833 1.35889 37.4553 2.96683C39.3583 4.51838 40.6574 6.61627 41.3172 9.20153C41.8914 11.4523 41.9218 13.662 41.951 15.7986C41.9721 17.3319 41.9942 19.1488 41.9984 20.9964C41.9942 22.8517 41.9721 24.6686 41.951 26.2019C41.9388 27.1081 41.1903 27.8323 40.2882 27.8201C39.382 27.8076 38.6579 27.0629 38.67 26.157C38.6909 24.6327 38.713 22.8277 38.7171 20.9964C38.713 19.1728 38.6909 17.3678 38.67 15.8435C38.6434 13.8981 38.6159 11.8865 38.1378 10.0129C37.6555 8.12295 36.7282 6.60793 35.3817 5.5098C33.9254 4.32195 32.147 3.65641 30.0962 3.53176C27.2075 3.35616 24.2338 3.27509 21.0032 3.28182C17.7649 3.27413 14.7909 3.35616 11.9022 3.53176C9.85144 3.65641 8.07335 4.32195 6.61665 5.50948C5.27019 6.60761 4.34285 8.12263 3.8606 10.0129C3.38251 11.8865 3.35495 13.8981 3.32835 15.8435C3.30753 17.3678 3.28574 19.1728 3.28125 21.0041C3.28574 22.8277 3.30753 24.6327 3.32835 26.157C3.35495 28.1024 3.38251 30.1141 3.8606 31.9877C4.34285 33.8776 5.27019 35.3926 6.61665 36.4907C8.07335 37.6786 9.85144 38.3441 11.9022 38.4688C14.7909 38.6444 17.7655 38.7264 20.9955 38.7184C24.2341 38.7261 27.2075 38.6444 30.0962 38.4688C32.147 38.3441 33.925 37.6786 35.3817 36.4907C36.3517 35.6996 37.1095 34.6844 37.6341 33.4732C37.9942 32.642 38.96 32.2597 39.7916 32.6199C40.6231 32.98 41.0051 33.9458 40.6452 34.7774C39.9098 36.4753 38.8367 37.9074 37.4553 39.0337C35.4833 40.642 33.0076 41.5789 30.2955 41.7439C27.4625 41.9163 24.5523 42.0003 21.4134 42.0003ZM31.1709 21.0003C31.1709 15.3462 26.5711 10.7464 20.917 10.7464C15.2633 10.7464 10.6631 15.3462 10.6631 21.0003C10.6631 26.6543 15.2633 31.2542 20.917 31.2542C26.5711 31.2542 31.1709 26.6543 31.1709 21.0003ZM27.8897 21.0003C27.8897 24.8448 24.7619 27.9729 20.917 27.9729C17.0724 27.9729 13.9444 24.8448 13.9444 21.0003C13.9444 17.1557 17.0724 14.0276 20.917 14.0276C24.7619 14.0276 27.8897 17.1557 27.8897 21.0003ZM32.3194 7.4651C30.9604 7.4651 29.8584 8.56675 29.8584 9.92604C29.8584 11.2853 30.9604 12.387 32.3194 12.387C33.6786 12.387 34.7803 11.2853 34.7803 9.92604C34.7803 8.56675 33.6786 7.4651 32.3194 7.4651Z"/>
</svg>
