<svg id="clock" width="56" height="53" viewBox="0 0 56 53" xmlns="http://www.w3.org/2000/svg">
<path d="M28.2467 0.943359C12.9928 0.943359 0.630066 12.5225 0.630066 26.8078C0.630066 41.0931 12.9928 52.6739 28.2467 52.6739C43.4971 52.6739 55.8616 41.0931 55.8616 26.8078C55.8616 12.5225 43.4971 0.943359 28.2467 0.943359ZM29.4181 48.3809V44.5249C29.4181 43.9174 28.892 43.4262 28.2467 43.4262C27.598 43.4262 27.0736 43.9189 27.0736 44.5249V48.3809C15.2607 47.8228 5.80775 38.9722 5.21183 27.9066H9.1466C9.7936 27.9066 10.3197 27.4138 10.3197 26.8078C10.3197 26.2018 9.7919 25.7107 9.1466 25.7107H5.21013C5.80605 14.6402 15.2658 5.78487 27.0821 5.22991C27.0821 5.25065 27.0719 5.2634 27.0719 5.28254V9.30278C27.0719 9.90877 27.598 10.4015 28.245 10.4015C28.892 10.4015 29.4164 9.90717 29.4164 9.30278V5.28413C29.4164 5.265 29.4062 5.25065 29.4045 5.23151C41.2224 5.78647 50.6805 14.6402 51.2747 25.7107H47.311C46.664 25.7107 46.1396 26.2034 46.1396 26.8078C46.1396 27.4154 46.6657 27.9066 47.311 27.9066H51.2747C50.6822 38.9722 41.2326 47.8228 29.4181 48.3809Z"/>
<path d="M30.4073 27.6673C30.4873 27.4473 30.5537 27.224 30.5537 26.9832C30.5537 25.7872 29.5219 24.8208 28.2466 24.8208C26.9714 24.8208 25.9396 25.7872 25.9396 26.9832C25.9396 28.1761 26.9714 29.144 28.2466 29.144C28.3692 29.144 28.4765 29.0962 28.5957 29.0787C28.6161 29.101 28.6263 29.1249 28.6485 29.144L38.207 36.915L40.7831 37.5497L39.5061 35.0604L30.4073 27.6673Z"/>
</svg>
