<svg width="63" height="60" viewBox="0 0 63 60" fill="none" xmlns="http://www.w3.org/2000/svg">
<g clip-path="url(#clip0)" filter="url(#filter0_d)">
<path d="M59.1503 41.1293C59.2673 41.9691 58.9941 42.6993 58.3317 43.3199L50.5552 50.5484C50.2044 50.9134 49.7465 51.224 49.1813 51.4793C48.6161 51.735 48.0607 51.8993 47.5152 51.9722C47.4762 51.9722 47.359 51.9816 47.164 51.9999C46.9694 52.018 46.716 52.0273 46.4042 52.0273C45.6634 52.0273 44.4646 51.9087 42.808 51.6713C41.1513 51.4339 39.1245 50.8496 36.7274 49.9188C34.3298 48.9879 31.611 47.5912 28.5707 45.7294C25.5304 43.8678 22.295 41.3119 18.8647 38.0626C16.1362 35.5434 13.8753 33.1339 12.0823 30.8339C10.2892 28.5337 8.84693 26.4071 7.7555 24.4539C6.66397 22.5006 5.84539 20.7299 5.29968 19.1418C4.75396 17.5537 4.38365 16.1846 4.18875 15.0345C3.99385 13.8845 3.91589 12.9809 3.95487 12.3238C3.99385 11.6666 4.01334 11.3015 4.01334 11.2285C4.0913 10.7174 4.26671 10.1971 4.53957 9.66773C4.81243 9.13835 5.14376 8.70937 5.53356 8.38079L13.31 1.09725C13.8557 0.586129 14.4794 0.330566 15.1811 0.330566C15.6878 0.330566 16.1361 0.467475 16.5259 0.741292C16.9157 1.01511 17.247 1.35282 17.5198 1.75442L23.7761 12.8714C24.1269 13.4555 24.2244 14.0944 24.0685 14.7881C23.9125 15.4818 23.5812 16.0659 23.0745 16.5405L20.2095 19.2239C20.1315 19.297 20.0633 19.4156 20.0048 19.5799C19.9463 19.7442 19.9171 19.8811 19.9171 19.9906C20.073 20.7573 20.4238 21.6335 20.9696 22.6193C21.4373 23.4955 22.1584 24.5634 23.1329 25.8229C24.1074 27.0825 25.4912 28.5336 27.2843 30.1765C29.0384 31.8561 30.5976 33.1611 31.9619 34.0923C33.3259 35.0229 34.4664 35.7077 35.3824 36.1458C36.2985 36.584 37.0001 36.8486 37.4872 36.9396L38.2179 37.0766C38.2959 37.0766 38.4229 37.0492 38.5981 36.9945C38.7735 36.9396 38.9002 36.8758 38.9782 36.8027L42.3109 33.6265C43.0129 33.0424 43.8311 32.7503 44.7667 32.7503C45.4296 32.7503 45.9555 32.8598 46.3453 33.0789H46.4037L57.6882 39.3219C58.5071 39.7969 58.9943 40.3991 59.1503 41.1293Z" fill="#940080"/>
</g>
<defs>
<filter id="filter0_d" x="0.945129" y="0.314453" width="61.2315" height="58.7305" filterUnits="userSpaceOnUse" color-interpolation-filters="sRGB">
<feFlood flood-opacity="0" result="BackgroundImageFix"/>
<feColorMatrix in="SourceAlpha" type="matrix" values="0 0 0 0 0 0 0 0 0 0 0 0 0 0 0 0 0 0 127 0"/>
<feOffset dy="4"/>
<feGaussianBlur stdDeviation="1.5"/>
<feColorMatrix type="matrix" values="0 0 0 0 0 0 0 0 0 0 0 0 0 0 0 0 0 0 0.5 0"/>
<feBlend mode="normal" in2="BackgroundImageFix" result="effect1_dropShadow"/>
<feBlend mode="normal" in="SourceGraphic" in2="effect1_dropShadow" result="shape"/>
</filter>
<clipPath id="clip0">
<rect width="55.2315" height="51.7305" fill="white" transform="translate(3.94513 0.314453)"/>
</clipPath>
</defs>
</svg>
